<?xml version="1.0" encoding="UTF-8" standalone="no"?>
<!-- Generator: Adobe Illustrator 26.0.3, SVG Export Plug-In . SVG Version: 6.00 Build 0)  -->

<svg
   version="1.1"
   id="Layer_1"
   x="0px"
   y="0px"
   viewBox="0 0 576 576"
   xml:space="preserve"
   width="576"
   height="576"
   xmlns="http://www.w3.org/2000/svg"
   xmlns:svg="http://www.w3.org/2000/svg"><defs
   id="defs1" />












<g
   id="layer2"><g
     id="layer1"
     style="display:inline;fill:#000000"><g
       id="g1"
       style="display:inline;fill:#000000;fill-opacity:1"><path
         id="path1"
         style="fill:#000000;fill-opacity:1;stroke-width:1.05032;stroke-opacity:6.8515e-05"
         d="M 14.367188,1.5410156 A 6.0429358,6.0429358 0 0 0 8.3242188,7.5839844 6.0429358,6.0429358 0 0 0 14.367188,13.626953 6.0429358,6.0429358 0 0 0 20.410156,7.5839844 6.0429358,6.0429358 0 0 0 14.367188,1.5410156 Z m 0,2.484375 a 3.5584877,3.5584877 0 0 1 3.558593,3.5585938 3.5584877,3.5584877 0 0 1 -3.558593,3.5585936 3.5584877,3.5584877 0 0 1 -3.558594,-3.5585936 3.5584877,3.5584877 0 0 1 3.558594,-3.5585938 z" /></g><g
       id="g2"
       transform="translate(0.00891946,9.3359562)"
       style="display:inline;fill:#000000;fill-opacity:1"><path
         id="path2"
         style="fill:#000000;fill-opacity:1;stroke-width:1.05032;stroke-opacity:6.8515e-05"
         d="M 14.367188,1.5410156 A 6.0429358,6.0429358 0 0 0 8.3242188,7.5839844 6.0429358,6.0429358 0 0 0 14.367188,13.626953 6.0429358,6.0429358 0 0 0 20.410156,7.5839844 6.0429358,6.0429358 0 0 0 14.367188,1.5410156 Z m 0,2.484375 a 3.5584877,3.5584877 0 0 1 3.558593,3.5585938 3.5584877,3.5584877 0 0 1 -3.558593,3.5585936 3.5584877,3.5584877 0 0 1 -3.558594,-3.5585936 3.5584877,3.5584877 0 0 1 3.558594,-3.5585938 z" /></g><g
       id="g3"
       transform="translate(-4.7208146,4.7652607)"
       style="display:inline;fill:#000000;fill-opacity:1"><path
         id="path3"
         style="fill:#000000;fill-opacity:1;stroke-width:1.05032;stroke-opacity:6.8515e-05"
         d="M 14.367188,1.5410156 A 6.0429358,6.0429358 0 0 0 8.3242188,7.5839844 6.0429358,6.0429358 0 0 0 14.367188,13.626953 6.0429358,6.0429358 0 0 0 20.410156,7.5839844 6.0429358,6.0429358 0 0 0 14.367188,1.5410156 Z m 0,2.484375 a 3.5584877,3.5584877 0 0 1 3.558593,3.5585938 3.5584877,3.5584877 0 0 1 -3.558593,3.5585936 3.5584877,3.5584877 0 0 1 -3.558594,-3.5585936 3.5584877,3.5584877 0 0 1 3.558594,-3.5585938 z" /></g></g></g></svg>
