<?xml version="1.0" encoding="utf-8"?>
<!-- Generator: Adobe Illustrator 27.5.0, SVG Export Plug-In . SVG Version: 6.00 Build 0)  -->
<svg version="1.1" id="Layer_1" xmlns:svg="http://www.w3.org/2000/svg"
	 xmlns="http://www.w3.org/2000/svg" xmlns:xlink="http://www.w3.org/1999/xlink" x="0px" y="0px" viewBox="0 0 24 24"
	 style="enable-background:new 0 0 24 24;" xml:space="preserve">
<path id="path2_00000147205488968449934080000000023432183758799233_" d="M14.1,10.6c-3,0-5.5,2.5-5.5,5.5c0,0,0,0,0,0
	c0,3,2.5,5.5,5.5,5.5c0,0,0,0,0,0c3,0,5.5-2.5,5.5-5.5c0,0,0,0,0,0C19.6,13.1,17.2,10.6,14.1,10.6C14.1,10.6,14.1,10.6,14.1,10.6z
	 M14.1,12.9c1.8,0,3.2,1.4,3.2,3.2c0,0,0,0,0,0c0,1.8-1.4,3.2-3.2,3.2c0,0,0,0,0,0c-1.8,0-3.2-1.4-3.2-3.2c0,0,0,0,0,0
	C10.9,14.3,12.4,12.9,14.1,12.9C14.1,12.9,14.1,12.9,14.1,12.9z"/>
<path id="path3_00000117638612945355643480000007266658093947650475_" d="M9.9,6.5c-3,0-5.5,2.5-5.5,5.5c0,0,0,0,0,0
	c0,3,2.5,5.5,5.5,5.5c0,0,0,0,0,0c3,0,5.5-2.5,5.5-5.5c0,0,0,0,0,0C15.3,8.9,12.9,6.5,9.9,6.5C9.9,6.5,9.9,6.5,9.9,6.5z M9.9,8.7
	c1.8,0,3.2,1.4,3.2,3.2c0,0,0,0,0,0c0,1.8-1.4,3.2-3.2,3.2c0,0,0,0,0,0c-1.8,0-3.2-1.4-3.2-3.2c0,0,0,0,0,0
	C6.6,10.2,8.1,8.7,9.9,8.7C9.9,8.7,9.9,8.7,9.9,8.7z"/>
<path id="path1_00000029752988130750265010000001589857147619360653_" d="M14.1,2.2c-3,0-5.5,2.5-5.5,5.5c0,0,0,0,0,0
	c0,3,2.5,5.5,5.5,5.5c0,0,0,0,0,0c3,0,5.5-2.5,5.5-5.5c0,0,0,0,0,0C19.6,4.6,17.2,2.2,14.1,2.2C14.1,2.2,14.1,2.2,14.1,2.2z
	 M14.1,4.4c1.8,0,3.2,1.4,3.2,3.2c0,0,0,0,0,0c0,1.8-1.4,3.2-3.2,3.2c0,0,0,0,0,0c-1.8,0-3.2-1.4-3.2-3.2c0,0,0,0,0,0
	C10.9,5.8,12.4,4.4,14.1,4.4C14.1,4.4,14.1,4.4,14.1,4.4z"/>
</svg>
