<?xml version="1.0" encoding="utf-8"?>
<!-- Generator: Adobe Illustrator 27.5.0, SVG Export Plug-In . SVG Version: 6.00 Build 0)  -->
<svg version="1.1" id="Layer_1" xmlns="http://www.w3.org/2000/svg" xmlns:xlink="http://www.w3.org/1999/xlink" x="0px" y="0px"
	 viewBox="0 0 24 24" style="enable-background:new 0 0 24 24;" xml:space="preserve">
<path d="M5.9,4.2C8.4,6,11,9.8,12,11.8c1-2,3.6-5.8,6.1-7.7c1.8-1.3,4.7-2.4,4.7,0.9c0,0.7-0.4,5.5-0.6,6.3c-0.8,2.8-3.6,3.5-6.1,3
	c4.4,0.7,5.5,3.2,3.1,5.7c-4.6,4.7-6.6-1.2-7.1-2.7C12,17.2,12,17,12,17.1c0-0.1,0,0-0.1,0.3c-0.5,1.5-2.5,7.4-7.1,2.7
	c-2.4-2.5-1.3-4.9,3.1-5.7c-2.5,0.4-5.3-0.3-6.1-3c-0.2-0.8-0.6-5.7-0.6-6.3C1.2,1.8,4.1,2.8,5.9,4.2L5.9,4.2z"/>
</svg>
