<?xml version="1.0" encoding="UTF-8"?>
<svg id="Layer_1" xmlns="http://www.w3.org/2000/svg" version="1.1" viewBox="0 0 24 24">
  <!-- Generator: Adobe Illustrator 29.8.1, SVG Export Plug-In . SVG Version: 2.1.1 Build 2)  -->
  <path d="M19,17.2c0,2.5-2.4,4.5-6.9,4.5s-7.2-2.5-7.2-5,2.7-4,7.2-4,6.9,2,6.9,4.5ZM16.6,11c0,1.4-2.2,1.3-4.8,1.3s-4.6,0-4.6-1.4,2.2-2.9,4.7-2.9,4.7,1.6,4.7,3ZM16.3,7.2c0,1.4-1.9.5-4.5.5s-4,.8-4-.6,1.4-2.2,4-2.2,4.5,1,4.5,2.4ZM14.2,3.8c0,1-1,.3-2.4.3s-2.1.7-2.1-.3.8-1.6,2.1-1.6,2.4.6,2.4,1.6Z"/>
</svg>