<?xml version="1.0" encoding="utf-8"?>
<!-- Generator: Adobe Illustrator 27.5.0, SVG Export Plug-In . SVG Version: 6.00 Build 0)  -->
<svg version="1.1" id="Layer_1" xmlns="http://www.w3.org/2000/svg" xmlns:xlink="http://www.w3.org/1999/xlink" x="0px" y="0px"
	 viewBox="0 0 24 24" style="enable-background:new 0 0 24 24;" xml:space="preserve">
<g>
	<path d="M10.9,2.1C7.4,2.5,4.3,4.8,2.9,8c-0.9,2.1-1.1,4.5-0.4,6.7c0.8,2.8,2.9,5.1,5.6,6.3c2.1,0.9,4.5,1.1,6.7,0.4
		c3.3-1,6-3.7,6.8-7.1c1.3-5.3-2-10.8-7.3-12.1C13.1,2.1,12.1,2,10.9,2.1z M11.1,8.3c0.8,1.1,1.6,2.1,1.6,2.1s0.9-0.9,1.9-2.1
		l1.9-2.1h1.1l-0.2,0.2c-0.1,0.1-1,1.1-1.9,2.1c-0.9,1-1.8,2-2,2.2L13.1,11l2.5,3.3c1.4,1.8,2.5,3.3,2.5,3.4c0,0-0.8,0.1-1.8,0.1
		l-1.8,0l-1.7-2.3c-1.2-1.6-1.7-2.2-1.8-2.2c0,0-1,1-2.1,2.3l-2,2.2H6.4c-0.3,0-0.5,0-0.5,0c0,0,1.1-1.2,2.3-2.6
		c1.3-1.4,2.3-2.5,2.4-2.6c0,0-1-1.5-2.3-3.2C7,7.7,5.9,6.3,5.9,6.2c0,0,0.8,0,1.8,0h1.8L11.1,8.3z"/>
	<path d="M7.5,7.1c0,0,1.7,2.3,3.7,5l3.6,4.9l0.8,0c0.5,0,0.8,0,0.8-0.1c0,0-1.7-2.3-3.7-5L9.1,7H8.3C7.6,7,7.5,7,7.5,7.1L7.5,7.1z"
		/>
</g>
</svg>
